HIERARCHY
ROOT Hips
{
 OFFSET 0.000000 0.000000 0.000000
 CHANNELS 6 Xposition Yposition Zposition Yrotation Xrotation Zrotation
 JOINT Chest
 {
  OFFSET 0.000000 9.588913 -0.003946
  CHANNELS 3 Yrotation Xrotation Zrotation
  JOINT Chest2
  {
   OFFSET 0.000000 9.541882 0.008053
   CHANNELS 3 Yrotation Xrotation Zrotation
   JOINT Chest3
   {
    OFFSET 0.000000 9.501360 0.000000
    CHANNELS 3 Yrotation Xrotation Zrotation
    JOINT Chest4
    {
     OFFSET 0.000000 9.491660 0.000000
     CHANNELS 3 Yrotation Xrotation Zrotation
     JOINT Neck
     {
      OFFSET 0.000000 14.331917 0.000000
      CHANNELS 3 Yrotation Xrotation Zrotation
      JOINT Head
      {
       OFFSET 0.000000 8.884799 0.017034
       CHANNELS 3 Yrotation Xrotation Zrotation
       End Site
       {
        OFFSET 0.000000 16.896195 0.008993
       }
      }
     }
     JOINT RightCollar
     {
      OFFSET -2.923010 9.499495 0.000000
      CHANNELS 3 Yrotation Xrotation Zrotation
      JOINT RightShoulder
      {
       OFFSET -13.795216 0.000000 0.000000
       CHANNELS 3 Yrotation Xrotation Zrotation
       JOINT RightElbow
       {
        OFFSET -30.272209 0.000000 0.000000
        CHANNELS 3 Yrotation Xrotation Zrotation
        JOINT RightWrist
        {
         OFFSET -24.478199 0.000000 0.000000
         CHANNELS 3 Yrotation Xrotation Zrotation
         End Site
         {
          OFFSET -18.090752 0.000000 0.000000
         }
        }
       }
      }
     }
     JOINT LeftCollar
     {
      OFFSET 2.923010 9.499495 0.000000
      CHANNELS 3 Yrotation Xrotation Zrotation
      JOINT LeftShoulder
      {
       OFFSET 13.795216 0.000000 0.000000
       CHANNELS 3 Yrotation Xrotation Zrotation
       JOINT LeftElbow
       {
        OFFSET 30.272209 0.000000 0.000000
        CHANNELS 3 Yrotation Xrotation Zrotation
        JOINT LeftWrist
        {
         OFFSET 24.478199 0.000000 0.000000
         CHANNELS 3 Yrotation Xrotation Zrotation
         End Site
         {
          OFFSET 18.090752 0.000000 0.000000
         }
        }
       }
      }
     }
    }
   }
  }
 }
 JOINT RightHip
 {
  OFFSET -7.826875 0.019532 0.001973
  CHANNELS 3 Yrotation Xrotation Zrotation
  JOINT RightKnee
  {
   OFFSET 0.000000 -40.546152 -0.001885
   CHANNELS 3 Yrotation Xrotation Zrotation
   JOINT RightAnkle
   {
    OFFSET 0.000000 -39.417092 -0.003189
    CHANNELS 3 Yrotation Xrotation Zrotation
    JOINT RightToe
    {
     OFFSET 0.000000 -7.579396 17.243563
     CHANNELS 3 Yrotation Xrotation Zrotation
     End Site
     {
      OFFSET 0.000000 -1.500329 6.694466
     }
    }
   }
  }
 }
 JOINT LeftHip
 {
  OFFSET 7.826875 0.019532 0.001973
  CHANNELS 3 Yrotation Xrotation Zrotation
  JOINT LeftKnee
  {
   OFFSET 0.000000 -40.546152 -0.001885
   CHANNELS 3 Yrotation Xrotation Zrotation
   JOINT LeftAnkle
   {
    OFFSET 0.000000 -39.417092 -0.003189
    CHANNELS 3 Yrotation Xrotation Zrotation
    JOINT LeftToe
    {
     OFFSET 0.000000 -7.579396 17.243563
     CHANNELS 3 Yrotation Xrotation Zrotation
     End Site
     {
      OFFSET 0.000000 -1.500329 6.694466
     }
    }
   }
  }
 }
}
MOTION
Frames: 5
Frame Time: 0.008333
126.083033 85.008615 -80.699869 -44.400553 -19.626856 1.320334 -1.809898 5.084414 0.700878 -1.057286 2.993479 -0.050452 -1.322472 3.741664 -0.071735 -1.057286 2.993481 -0.050453 2.269772 26.642595 -2.113828 2.971222 3.517330 -2.835590 -3.392938 5.525776 -8.486529 -11.419816 9.820293 93.974728 -3.434636 8.196451 -3.763828 -2.402398 -6.079147 6.536069 -3.692863 -0.998470 -1.132494 2.515711 -18.542679 -88.922880 -29.262322 -5.526031 -12.347821 -4.304565 -0.085480 2.085242 -3.022366 -12.622581 -7.757537 6.431074 13.191866 -0.042276 2.789774 -10.028761 7.964263 -0.379514 -3.263130 0.190645 -1.090150 29.756312 -1.433918 -9.006057 23.633961 2.222484 -4.114958 -20.536594 0.902178 0.090689 -12.005430 0.955602
124.615202 84.963930 -80.290853 -44.327001 -19.807614 0.891731 -1.802298 5.050904 0.937117 -1.085706 2.986387 -0.051308 -1.358012 3.732789 -0.073016 -1.085705 2.986386 -0.051307 2.447980 26.740905 -2.012583 3.145034 3.645694 -2.766241 -3.335054 5.388193 -8.333815 -11.387670 9.754032 93.920524 -3.393273 8.255750 -3.747297 -2.418024 -6.079780 6.511285 -3.653538 -0.904572 -1.113451 2.510490 -17.913769 -88.752057 -29.283436 -5.608165 -12.351401 -4.326787 -0.089008 2.062211 -2.879620 -11.936119 -7.242713 6.366048 13.764987 0.403865 2.337060 -8.827344 7.289402 -0.402132 -3.803566 0.109785 -0.195366 30.013247 -0.155474 -9.010834 24.994331 2.305142 -4.170457 -20.151485 0.146853 -0.048156 -14.157965 1.272624
123.120389 84.924871 -79.882630 -44.346639 -20.106245 0.396408 -1.779316 5.091387 1.140642 -1.087125 2.993365 -0.017337 -1.359510 3.741607 -0.030570 -1.087122 2.993357 -0.017336 2.613065 26.859849 -1.936445 3.310683 3.801321 -2.721559 -3.300428 5.304848 -8.170027 -11.342199 9.588606 93.861102 -3.301544 8.305214 -3.705078 -2.392724 -6.074294 6.460356 -3.594956 -0.769280 -1.098274 2.505050 -17.305291 -88.555753 -29.176173 -5.640654 -12.339073 -4.354885 -0.081363 1.996096 -2.531080 -11.217673 -6.591066 6.075580 14.510131 0.626414 2.174211 -7.554832 7.147817 -0.291207 -4.360065 -0.226277 0.773424 30.280857 1.216528 -8.962548 26.500656 2.400351 -4.224582 -19.610297 -0.672107 -0.236646 -16.480117 1.638435
121.622484 84.884980 -79.476940 -44.455087 -20.455397 -0.134253 -1.725779 5.167397 1.300530 -1.067631 3.000905 0.050891 -1.334577 3.751228 0.054880 -1.067626 3.000891 0.050891 2.764104 26.998946 -1.884939 3.467052 3.983589 -2.700814 -3.284215 5.291049 -8.016483 -11.288282 9.321691 93.811487 -3.163556 8.335871 -3.649732 -2.343015 -6.068460 6.383082 -3.523568 -0.600866 -1.077946 2.551566 -16.703388 -88.375393 -28.928315 -5.585518 -12.318398 -4.391132 -0.066623 1.898133 -2.080492 -10.524239 -5.860743 5.783501 15.342681 0.811092 2.160831 -6.274669 7.194026 -0.128462 -4.903846 -0.594293 1.792894 30.454427 2.634488 -8.852686 28.186686 2.505321 -4.307001 -18.899593 -1.530347 -0.460223 -18.990094 2.049820
120.132275 84.839523 -79.078733 -44.631395 -20.827628 -0.733333 -1.617605 5.273500 1.503433 -1.040588 3.001939 0.139160 -1.300037 3.752768 0.165470 -1.040583 3.001924 0.139158 2.908190 27.145108 -1.848008 3.619484 4.175798 -2.694490 -3.281359 5.318301 -7.880230 -11.231382 8.982360 93.775579 -2.984582 8.341228 -3.590562 -2.279605 -6.074066 6.277969 -3.443296 -0.414400 -1.044386 2.665434 -16.093694 -88.241960 -28.546075 -5.429529 -12.280668 -4.423769 -0.045547 1.788091 -1.659525 -9.863377 -5.003721 5.689204 16.194766 1.039966 2.106177 -5.034340 7.290835 0.029715 -5.389937 -0.937224 2.870209 30.469086 4.115786 -8.629285 30.092934 2.666308 -4.454067 -18.003602 -2.429692 -0.735527 -21.716361 2.504765
